<svg width="40" height="40" viewBox="0 0 40 40" fill="none" xmlns="http://www.w3.org/2000/svg">
<rect width="40" height="40" rx="8" fill="#835500"/>
<path d="M18 22H22V20H18V22V22M18 19H26V17H18V19V19M18 16H26V14H18V16V16M16 26C15.45 26 14.9792 25.8042 14.5875 25.4125C14.1958 25.0208 14 24.55 14 24V12C14 11.45 14.1958 10.9792 14.5875 10.5875C14.9792 10.1958 15.45 10 16 10H28C28.55 10 29.0208 10.1958 29.4125 10.5875C29.8042 10.9792 30 11.45 30 12V24C30 24.55 29.8042 25.0208 29.4125 25.4125C29.0208 25.8042 28.55 26 28 26H16V26M12 30C11.45 30 10.9792 29.8042 10.5875 29.4125C10.1958 29.0208 10 28.55 10 28V14H12V28V28V28H26V30H12V30" fill="white"/>
</svg>
